<?xml version="1.0" encoding="utf-8"?>
<!-- Generator: Adobe Illustrator 25.1.0, SVG Export Plug-In . SVG Version: 6.00 Build 0)  -->
<svg version="1.1" id="Layer_1" xmlns="http://www.w3.org/2000/svg" xmlns:xlink="http://www.w3.org/1999/xlink" x="0px" y="0px"
	 viewBox="0 0 26.1 26.1" style="enable-background:new 0 0 26.1 26.1;" xml:space="preserve">
<style type="text/css">
	.st0{fill:#38A3A5;}
	.st1{fill:#202D87;}
</style>
<g id="_x31_.0-Product-_x2013_-Overview-_x28_Parent-page_x29_-" transform="translate(-150.000000, -1930.000000)">
	<g id="_x30_3-Page-Content-_x2F_-Feature-Tab" transform="translate(0.000000, 1592.000000)">
		<g id="_x30_1-Component-_x2F_-Icon-_x2F_-Cog-_x2F_-Box" transform="translate(150.000000, 338.000000)">
			<path id="Rectangle" class="st0" d="M20.6,0H5.5C2.5,0,0,2.5,0,5.5v15.1c0,3,2.5,5.5,5.5,5.5h15.1c3,0,5.5-2.5,5.5-5.5V5.5
				C26.1,2.5,23.6,0,20.6,0z M5.4,1.8h15.2c2,0,3.6,1.6,3.6,3.6v15.2c0,2-1.6,3.6-3.6,3.6H5.4c-2,0-3.6-1.6-3.6-3.6V5.4
				C1.8,3.5,3.5,1.8,5.4,1.8z"/>
			<g id="_x30_1-Component-_x2F_-Icon-_x2F_-Cog" transform="translate(23.500000, 23.066667)">
				<g id="Mask">
					<path id="path-1_1_" class="st1" d="M-14.4-10.2c-0.3-0.3-0.3-0.6,0-0.9l3.1-3.1c0.3-0.3,0.6-0.3,0.9,0l3.1,3.1
						c0.3,0.3,0.3,0.6,0,0.9C-7.4-10.1-7.5-10-7.7-10s-0.3-0.1-0.4-0.2l-2.7-2.7l-2.7,2.7C-13.8-9.9-14.2-9.9-14.4-10.2z M-10.4-9.8
						c-0.3-0.3-0.6-0.3-0.9,0l-3.1,3.1c-0.3,0.3-0.3,0.6,0,0.9c0.3,0.3,0.6,0.3,0.9,0l2.7-2.7l2.7,2.7C-8-5.7-7.8-5.6-7.7-5.6
						c0.1,0,0.3-0.1,0.4-0.2C-7-6.1-7-6.4-7.2-6.7L-10.4-9.8z"/>
				</g>
			</g>
		</g>
	</g>
</g>
</svg>
