<?xml version="1.0" encoding="utf-8"?>
<!-- Generator: Adobe Illustrator 25.1.0, SVG Export Plug-In . SVG Version: 6.00 Build 0)  -->
<svg version="1.1" id="Layer_1" xmlns="http://www.w3.org/2000/svg" xmlns:xlink="http://www.w3.org/1999/xlink" x="0px" y="0px"
	 viewBox="0 0 48 48" style="enable-background:new 0 0 48 48;" xml:space="preserve">
<style type="text/css">
	.st0{fill:#4056F4;}
	.st1{fill-rule:evenodd;clip-rule:evenodd;fill:#3AD8B6;}
	.st2{fill:#40B4F4;}
</style>
<g id="_x30_3-Page-Content-_x2F_-Benefit---Icon-_x26_-Paragraph" transform="translate(538.500000, 308.000000)">
	<g id="_x30_1-Component-_x2F_-Icon-_x2F_-Benefits-_x2F_-Customisable" transform="translate(0.014483, 0.000000)">
		<g id="Group-6" transform="translate(0.000000, 6.000000)">
			<path id="Oval" class="st0" d="M-515-302c-6.9,0-12.5,5.6-12.5,12.5s5.6,12.5,12.5,12.5c6.9,0,12.5-5.6,12.5-12.5
				S-508.1-302-515-302z M-515-298.4c4.9,0,8.9,4,8.9,8.9s-4,8.9-8.9,8.9c-4.9,0-8.9-4-8.9-8.9S-519.9-298.4-515-298.4z"/>
			<path id="Shape" class="st1" d="M-512.5-284.4v18.4h-4v-18.4H-512.5z M-490.5-292v4h-18.4v-4H-490.5z M-520.1-292v4h-18.4v-4
				H-520.1z M-512.5-314v18.4h-4V-314H-512.5z"/>
			<path id="Combined-Shape" class="st2" d="M-512.8-280.9v3.7c-0.7,0.1-1.5,0.2-2.2,0.2c-0.6,0-1.2,0-1.8-0.1l0-3.6
				c0.6,0.1,1.2,0.2,1.8,0.2C-514.2-280.6-513.5-280.7-512.8-280.9z M-523.7-291.7c-0.2,0.7-0.3,1.5-0.3,2.2c0,0.6,0.1,1.2,0.2,1.8
				l-3.6,0c-0.1-0.6-0.1-1.2-0.1-1.8c0-0.8,0.1-1.5,0.2-2.2H-523.7z M-502.7-291.7c0.1,0.7,0.2,1.5,0.2,2.2c0,0.6,0,1.2-0.1,1.8
				l-3.6,0c0.1-0.6,0.2-1.2,0.2-1.8c0-0.8-0.1-1.5-0.3-2.2H-502.7z M-515-302c0.8,0,1.5,0.1,2.2,0.2v3.7c-0.7-0.2-1.5-0.3-2.2-0.3
				c-0.6,0-1.2,0.1-1.8,0.2l0-3.6C-516.2-302-515.6-302-515-302z"/>
		</g>
	</g>
</g>
</svg>
