<?xml version="1.0" encoding="utf-8"?>
<!-- Generator: Adobe Illustrator 25.1.0, SVG Export Plug-In . SVG Version: 6.00 Build 0)  -->
<svg version="1.1" id="Layer_1" xmlns="http://www.w3.org/2000/svg" xmlns:xlink="http://www.w3.org/1999/xlink" x="0px" y="0px"
	 viewBox="0 0 71 71" style="enable-background:new 0 0 71 71;" xml:space="preserve">
<style type="text/css">
	.st0{fill:#38A3A5;}
	.st1{fill:#202D87;}
</style>
<g id="_x31_.0-Product-_x2013_-Overview-_x28_Parent-page_x29_-" transform="translate(-150.000000, -2106.000000)">
	<g id="_x30_3-Page-Content-_x2F_-Feature-Tab" transform="translate(0.000000, 1592.000000)">
		<g id="_x30_1-Component-_x2F_-Icon-_x2F_-Cog-_x2F_-Box" transform="translate(150.000000, 514.000000)">
			<path id="Rectangle" class="st0" d="M56.1,0H14.9C6.7,0,0,6.7,0,14.9v41.2C0,64.3,6.7,71,14.9,71h41.2C64.3,71,71,64.3,71,56.1
				V14.9C71,6.7,64.3,0,56.1,0z M14.8,5h41.4c5.4,0,9.8,4.4,9.8,9.8v41.4c0,5.4-4.4,9.8-9.8,9.8H14.8C9.4,66,5,61.6,5,56.2V14.8
				C5,9.4,9.4,5,14.8,5z"/>
			<g id="_x30_1-Component-_x2F_-Icon-_x2F_-Cog" transform="translate(24.500000, 22.066667)">
				<g id="Shape">
					<path id="path-1_1_" class="st1" d="M12,10.4v14.2c0,0.8-0.6,1.4-1.5,1.4S9,25.4,9,24.6V10.4C9,9.6,9.6,9,10.5,9
						S12,9.6,12,10.4z M19.5,0C18.6,0,18,0.6,18,1.4v23.1c0,0.9,0.6,1.4,1.5,1.4s1.5-0.6,1.5-1.4V1.4C21,0.6,20.4,0,19.5,0z M1.5,17
						C0.6,17,0,17.6,0,18.5v6C0,25.4,0.6,26,1.5,26S3,25.4,3,24.5v-6C3,17.6,2.4,17,1.5,17z"/>
				</g>
			</g>
		</g>
	</g>
</g>
</svg>
