<?xml version="1.0" encoding="utf-8"?>
<!-- Generator: Adobe Illustrator 25.1.0, SVG Export Plug-In . SVG Version: 6.00 Build 0)  -->
<svg version="1.1" id="Layer_1" xmlns="http://www.w3.org/2000/svg" xmlns:xlink="http://www.w3.org/1999/xlink" x="0px" y="0px"
	 viewBox="0 0 60 30" style="enable-background:new 0 0 60 30;" xml:space="preserve">
<style type="text/css">
	.st0{fill-rule:evenodd;clip-rule:evenodd;fill:#4056F4;}
	.st1{fill:#3AD8B6;}
	.st2{fill-rule:evenodd;clip-rule:evenodd;fill:#40B4F4;}
</style>
<g id="_x33_.0-Solutions-template-page" transform="translate(-930.000000, -1283.000000)">
	<g id="_x30_3-Page-Content-_x2F_-Benefit-Grid-_x2F_-3" transform="translate(-1.000000, 1079.000000)">
		<g id="_x30_3-Page-Content-_x2F_-Benefit---Icon-_x26_-Paragraph" transform="translate(931.500000, 204.000000)">
			<g id="_x30_1-Component-_x2F_-Icon-_x2F_-Benefits-_x2F_-Customisable" transform="translate(0.014483, 0.000000)">
				<g id="Group-5" transform="translate(0.000000, 15.000000)">
					<rect id="Rectangle_1_" x="0.5" y="-14" class="st0" width="9" height="27"/>
					<rect id="Rectangle_2_" x="12.5" y="-3" class="st0" width="9" height="17"/>
					<rect id="Rectangle_3_" x="24.5" y="-9" class="st0" width="9" height="23"/>
					<rect id="Rectangle_4_" x="36.5" y="0" class="st0" width="9" height="14"/>
					<rect id="Rectangle_5_" x="48.5" y="5" class="st0" width="9" height="8"/>
					<path id="Path-6" class="st1" d="M33.7-14.1c0.5-1.1,2-1.2,2.6-0.2l0.1,0.1l5.5,9.8l6.1-5.7c0.7-0.7,1.9-0.5,2.4,0.4l0,0.1
						l9,22.5c0.3,0.8-0.1,1.6-0.8,1.9c-0.7,0.3-1.6,0-1.9-0.7l0-0.1L48.4-6.4l-5.9,5.5c-0.7,0.6-1.8,0.5-2.3-0.3l-0.1-0.1l-5-8.9
						l-5.8,13c-0.1,0.3-0.4,0.6-0.7,0.7l-0.1,0.1l-27,11.2c-0.8,0.3-1.6,0-2-0.8c-0.3-0.7,0-1.6,0.7-1.9l0.1,0l26.5-11L33.7-14.1z"
						/>
					<path id="Combined-Shape" class="st2" d="M9.5,8.5v3.3L4.4,14H0.5l0-1.7L9.5,8.5z M55.8,5.6l1.7,4.3V14h-1.6l-3.3-8.4H55.8z
						 M21.5,3.4v3.3l-9,3.8V7.2L21.5,3.4z M33.5-9l0,1.6L28.9,3.1c-0.1,0.3-0.4,0.6-0.7,0.7l-0.1,0.1l-3.6,1.5V2.1l1.9-0.8L30.9-9
						L33.5-9z"/>
				</g>
			</g>
		</g>
	</g>
</g>
</svg>
