<?xml version="1.0" encoding="utf-8"?>
<!-- Generator: Adobe Illustrator 25.1.0, SVG Export Plug-In . SVG Version: 6.00 Build 0)  -->
<svg version="1.1" id="Layer_1" xmlns="http://www.w3.org/2000/svg" xmlns:xlink="http://www.w3.org/1999/xlink" x="0px" y="0px"
	 viewBox="0 0 71 72" style="enable-background:new 0 0 71 72;" xml:space="preserve">
<style type="text/css">
	.st0{fill:#38A3A5;}
	.st1{fill:#202D87;}
</style>
<g id="_x31_.0-Product-_x2013_-Overview-_x28_Parent-page_x29_-" transform="translate(-735.000000, -1930.000000)">
	<g id="_x30_3-Page-Content-_x2F_-Feature-Tab" transform="translate(0.000000, 1592.000000)">
		<g id="_x30_1-Component-_x2F_-Icon-_x2F_-Cog-_x2F_-Box" transform="translate(735.000000, 338.000000)">
			<path id="Rectangle" class="st0" d="M56.1,0H14.9C6.7,0,0,6.7,0,14.9v41.2C0,64.3,6.7,71,14.9,71h41.2C64.3,71,71,64.3,71,56.1
				V14.9C71,6.7,64.3,0,56.1,0z M14.8,5h41.4c5.4,0,9.8,4.4,9.8,9.8v41.4c0,5.4-4.4,9.8-9.8,9.8H14.8C9.4,66,5,61.6,5,56.2V14.8
				C5,9.4,9.4,5,14.8,5z"/>
			<g id="_x30_1-Component-_x2F_-Icon-_x2F_-Cog" transform="translate(21.500000, 19.066667)">
				<g id="Mask">
					<path id="path-1_1_" class="st1" d="M27.8,10.2c-0.2-0.2-0.2-0.3-0.3-0.5l-9.3-9.3c-0.2-0.2-0.3-0.3-0.5-0.3
						C17.6,0,17.3,0,17.1,0H4.7C2,0,0,2,0,4.6v24.7C0,32,2,34,4.7,34h18.7c2.6,0,4.7-2,4.7-4.6V10.8C28,10.7,28,10.4,27.8,10.2z
						 M19,5l4,4h-4V5z M23.4,31H4.6C3.6,31,3,30.4,3,29.4V4.6C3,3.6,3.6,3,4.6,3h11v7.8c0,0.9,0.6,1.6,1.6,1.6H25v17.1
						C25,30.4,24.4,31,23.4,31z M22,18.5c0,0.9-0.6,1.5-1.6,1.5H7.6c-1,0-1.6-0.6-1.6-1.5S6.6,17,7.6,17h12.8
						C21.4,17,22,17.6,22,18.5z M22,24.5c0,0.9-0.6,1.5-1.6,1.5H7.6c-1,0-1.6-0.6-1.6-1.5S6.6,23,7.6,23h12.8
						C21.4,23,22,23.6,22,24.5z M6,12.5C6,11.6,6.6,11,7.5,11h3c0.9,0,1.5,0.6,1.5,1.5S11.4,14,10.5,14h-3C6.6,14,6,13.4,6,12.5z"/>
				</g>
			</g>
		</g>
	</g>
</g>
</svg>
