<?xml version="1.0" encoding="utf-8"?>
<!-- Generator: Adobe Illustrator 25.1.0, SVG Export Plug-In . SVG Version: 6.00 Build 0)  -->
<svg version="1.1" id="Layer_1" xmlns="http://www.w3.org/2000/svg" xmlns:xlink="http://www.w3.org/1999/xlink" x="0px" y="0px"
	 viewBox="0 0 71 71" style="enable-background:new 0 0 71 71;" xml:space="preserve">
<style type="text/css">
	.st0{fill:#38A3A5;}
	.st1{fill:#202D87;}
</style>
<g id="_xD83C__xDFA8_-UI-Design">
	<g id="_x30_.1-Home" transform="translate(-930.000000, -1501.000000)">
		<g id="_x30_3-Page-Content-_x2F_-Convincer-Banner" transform="translate(0.000000, 1422.000000)">
			<g id="_x30_1-Component-_x2F_-Icon-_x2F_-Speech-_x2F_-Box" transform="translate(930.000000, 79.000000)">
				<path id="Rectangle" class="st0" d="M56.1,0H14.9C6.7,0,0,6.7,0,14.9v41.2C0,64.3,6.7,71,14.9,71h41.2C64.3,71,71,64.3,71,56.1
					V14.9C71,6.7,64.3,0,56.1,0z M14.8,5h41.4c5.4,0,9.8,4.4,9.8,9.8v41.4c0,5.4-4.4,9.8-9.8,9.8H14.8C9.4,66,5,61.6,5,56.2V14.8
					C5,9.4,9.4,5,14.8,5z"/>
				<g id="_x30_1-Component-_x2F_-Icon-_x2F_-Loader" transform="translate(18.500000, 19.000000)">
					<g id="Mask">
						<path id="path-1_1_" class="st1" d="M33.1,15.7V17c0,8.9-7.2,16.1-16.1,16.1l0,0C8.1,33.1,0.9,25.9,0.9,17S8.1,0.9,17,0.9l0,0
							c2.2,0,4.5,0.4,6.6,1.5c0.7,0.3,1,1.2,0.7,1.9C24,5,23.1,5.3,22.4,5c-1.8-0.7-3.5-1.2-5.4-1.2l0,0C9.7,3.9,3.9,9.7,3.9,17
							S9.7,30.1,17,30.1l0,0c7.3,0,13.1-5.8,13.1-13.1v-1.3c0-0.9,0.6-1.5,1.5-1.5C32.5,14.2,33.1,14.8,33.1,15.7z M33.6,2.4
							c-0.6-0.6-1.5-0.6-2,0l-15,15.4l-3.4-3.4c-0.6-0.6-1.5-0.6-2,0c-0.6,0.6-0.6,1.5,0,2.1l4.4,4.5c0.3,0.3,0.7,0.4,1,0.4
							s0.7-0.1,1-0.4L33.6,4.5C34.2,3.9,34.2,3,33.6,2.4z"/>
					</g>
				</g>
			</g>
		</g>
	</g>
</g>
</svg>
