<?xml version="1.0" encoding="utf-8"?>
<!-- Generator: Adobe Illustrator 25.1.0, SVG Export Plug-In . SVG Version: 6.00 Build 0)  -->
<svg version="1.1" id="Layer_1" xmlns="http://www.w3.org/2000/svg" xmlns:xlink="http://www.w3.org/1999/xlink" x="0px" y="0px"
	 viewBox="0 0 215 163.7" style="enable-background:new 0 0 215 163.7;" xml:space="preserve">
<style type="text/css">
	.st0{filter:url(#Adobe_OpacityMaskFilter);}
	.st1{fill-rule:evenodd;clip-rule:evenodd;fill:#FFFFFF;}
	.st2{mask:url(#mask-10_2_);}
</style>
<g id="_x30_1-Component-_x2F_-Logo-_x2F_-Wave-_x2F_-Large-_x2F_-White" transform="translate(534.399624, 3.000000)">
	<g id="Mask_2_">
	</g>
	<defs>
		<filter id="Adobe_OpacityMaskFilter" filterUnits="userSpaceOnUse" x="-550.4" y="-116" width="259" height="445.7">
			<feColorMatrix  type="matrix" values="1 0 0 0 0  0 1 0 0 0  0 0 1 0 0  0 0 0 1 0"/>
		</filter>
	</defs>
	<mask maskUnits="userSpaceOnUse" x="-550.4" y="-116" width="259" height="445.7" id="mask-10_2_">
		<g class="st0">
			<rect id="path-9_2_" x="-550.2" y="-2.9" class="st1" width="230.2" height="162.6"/>
		</g>
	</mask>
	<g id="Shape" class="st2">
		
			<g transform="translate(509.168583, 430.914420) scale(-1, 1) rotate(-116.000000) translate(-509.168583, -430.914420) translate(-468.831417, 82.414420)">
			<path class="st1" d="M951.5,1316.8c12.2,33.4,39.8,56.9,73.7,54.4c33.8-2.5,59.9-31.2,61.3-65.8l23.8-1.7
				c0.1,47.4-36.2,87.5-83.6,91c-45.8,3.4-77.8-28.8-95.1-73.1c-4.6-11.8-9.8-14.7-16.6-14.1c-6.8,0.6-14.1,5.1-15.9,19.2
				c-7.1,55.7-36.6,84.5-83.9,88c-45.8,3.4-80.1-24.6-95.1-73.1c-1.4-6.1-8.8-12.5-16.6-12c-7.8,0.6-14,6.5-15.9,14.4l-23.1,1.7
				c3.9-19.4,18.9-34.4,37.7-35.8c17.3-1.3,32.8,9.2,40.2,25.3c10.5,33.4,37.4,58.5,71.2,56c33.2-2.4,60.4-31.8,62.7-65.6l0,0
				c3.1-26.1,17.9-40.2,37-40.2C932.3,1285.5,943.6,1295.3,951.5,1316.8z M1003.1,1311.5c1.4,6.1,8.8,12.5,16.6,12
				c7.8-0.6,14-6.5,15.9-14.4l23.1-1.7c-3.9,19.4-18.9,34.4-37.7,35.8c-17.3,1.3-32.8-9.2-40.2-25.3c-10.5-33.4-37.4-58.5-71.2-56
				c-33.5,2.5-60.4,30.4-62.3,64.5l0,0c-1.3,28.2-18.7,41.1-38.3,42.5c-19.6,1.4-32.4-14.9-39.8-31c-10.5-33.4-37.4-58.5-71.2-56
				s-59.9,31.2-61.3,65.8l-23.8,1.7c-0.1-47.4,36.2-87.5,83.6-91c45.8-3.4,79.2,22.2,94.2,70.7c2.4,8.7,10.1,14.1,18.3,14.1
				s16.1-6.9,18.1-26.5s11.6-38,25.8-53.3c13.9-15,33.9-25.3,58-25.2C959.4,1238.4,988,1263,1003.1,1311.5z"/>
		</g>
	</g>
</g>
</svg>
