<?xml version="1.0" encoding="UTF-8"?>
<svg width="828px" height="356px" viewBox="0 0 828 356" version="1.1" xmlns="http://www.w3.org/2000/svg" xmlns:xlink="http://www.w3.org/1999/xlink">
    <title>B12CC470-949C-4D5C-A4BC-A368621FCDBF@2x</title>
    <defs>
        <linearGradient x1="30.4220259%" y1="46.3748587%" x2="69.5779741%" y2="53.6251413%" id="linearGradient-1">
            <stop stop-color="#379BA3" offset="0%"></stop>
            <stop stop-color="#202D87" offset="100%"></stop>
        </linearGradient>
    </defs>
    <g id="🎨-UI-Design" stroke="none" stroke-width="1" fill="none" fill-rule="evenodd">
        <g id="7.0-Contact-" transform="translate(-612.000000, -97.000000)" fill="url(#linearGradient-1)">
            <g id="03-Page-Content-/-Hero-Banner-/-General-/-With-Wave" transform="translate(0.000000, 97.000000)">
                <path d="M1327.58213,67.6055177 C1352.34492,146.322897 1415.6883,205.378718 1495.33372,199.519284 C1574.97915,193.65985 1636.41367,126.036437 1639.6613,44.6472702 L1695.70745,40.5315622 C1695.84277,152.056122 1610.44972,246.530673 1498.99312,254.730424 C1391.25748,262.656427 1310.43024,196.757368 1274.97202,82.5782157 C1271.56131,68.1246766 1254.22493,53.0380184 1235.95031,54.3824641 C1217.85843,55.7134653 1198.99256,67.3689989 1198.61706,86.8991307 L1198.61136,87.4933607 C1198.74667,199.017921 1112.44972,293.530673 1000.99312,301.730424 C893.25748,309.656427 812.430238,243.757368 776.972021,129.578216 C773.561306,115.124677 756.224929,100.038018 737.950306,101.382464 C719.675684,102.72691 704.98336,116.77111 700.410814,135.202908 L646.102072,139.206187 C655.182667,93.6200367 690.503759,58.2670984 734.876252,55.0026586 C775.503263,52.0137701 812.164634,76.77481 829.582134,114.605518 C854.344923,193.322897 917.688299,252.378718 997.333723,246.519284 C1075.47037,240.77085 1139.48565,171.578327 1144.94952,92.1080635 L1144.88089,92.1137788 C1144.88089,47.5467616 1188.50376,11.2670984 1232.87625,8.00265859 C1273.50326,5.01377011 1310.16463,29.77481 1327.58213,67.6055177 Z M1443.44181,58.8356139 C1446.85252,73.289153 1464.1889,88.3758112 1482.46352,87.0313655 C1500.73815,85.6869199 1515.43047,71.6427192 1520.00302,53.2109221 L1574.31176,49.2076485 C1565.23116,94.7937929 1529.91007,130.146731 1485.53758,133.411171 C1444.91057,136.40006 1408.2492,111.63902 1390.8317,73.8083119 C1366.06891,-4.90906743 1302.72553,-63.9648888 1223.08011,-58.1054548 C1144.23835,-52.3051459 1080.85008,13.47127 1076.42854,93.7482769 L1076.51565,93.7417085 C1080.06721,140.437395 1031.91007,177.146731 987.537578,180.411171 C946.910567,183.40006 910.249196,158.63902 892.831695,120.808312 C868.068907,42.0909326 804.72553,-16.9648888 725.080107,-11.1054548 C645.434684,-5.24602086 584.000162,62.3773929 580.752527,143.766559 L524.706375,147.882267 C524.571058,36.3577074 609.964107,-58.1168437 721.420711,-66.3165943 C829.156349,-74.2425973 909.983591,-8.34353874 945.441809,105.835614 C948.852524,120.289153 966.188901,135.375811 984.463523,134.031366 C1002.26136,132.721996 1021.81954,124.757203 1022.08237,100.206242 L1022.00302,100.210922 C1021.8677,-11.313638 1107.96411,-105.116844 1219.42071,-113.316594 C1327.15635,-121.242597 1407.98359,-55.3435387 1443.44181,58.8356139 Z" id="Combined-Shape" transform="translate(1110.206915, 94.206915) scale(-1, 1) rotate(-25.000000) translate(-1110.206915, -94.206915) "></path>
            </g>
        </g>
    </g>
</svg>