<?xml version="1.0" encoding="utf-8"?>
<!-- Generator: Adobe Illustrator 25.1.0, SVG Export Plug-In . SVG Version: 6.00 Build 0)  -->
<svg version="1.1" id="Layer_1" xmlns="http://www.w3.org/2000/svg" xmlns:xlink="http://www.w3.org/1999/xlink" x="0px" y="0px"
	 viewBox="0 0 71 71" style="enable-background:new 0 0 71 71;" xml:space="preserve">
<style type="text/css">
	.st0{fill:#38A3A5;}
	.st1{fill:#202D87;}
</style>
<g id="_xD83C__xDFA8_-UI-Design">
	<g id="_x32_.0-Product-_x2013_-Industry-specific-template-page" transform="translate(-730.000000, -1808.000000)">
		<g id="_x30_3-Page-Content-_x2F_-2-Column-_x2F_-Feature-List" transform="translate(0.000000, 1604.000000)">
			<g id="_x30_1-Component-_x2F_-Icon-_x2F_-Cog-_x2F_-Box" transform="translate(730.000000, 204.000000)">
				<path id="Rectangle_1_" class="st0" d="M56.1,0H14.9C6.7,0,0,6.7,0,14.9v41.2C0,64.3,6.7,71,14.9,71h41.2
					C64.3,71,71,64.3,71,56.1V14.9C71,6.7,64.3,0,56.1,0z M14.8,5h41.4c5.4,0,9.8,4.4,9.8,9.8v41.4c0,5.4-4.4,9.8-9.8,9.8H14.8
					C9.4,66,5,61.6,5,56.2V14.8C5,9.4,9.4,5,14.8,5z"/>
				<g id="icon-_x2F_-message-circle" transform="translate(16.500000, 17.066667)">
					<g id="Mask">
						<path id="path-1_1_" class="st1" d="M36.9,16.5c-0.6-8.8-7.5-16-16.5-16.4h-0.9l0,0c-2.8,0-5.3,0.6-7.7,1.8
							C5.7,4.9,2,11,2,17.6c0,2.4,0.6,5,1.5,7.2l-3.3,9.8c-0.2,0.7,0,1.5,0.4,1.8c0.6,0.4,0.9,0.6,1.5,0.6c0.2,0,0.4,0,0.6-0.2
							l9.7-3.3c2.2,0.9,4.6,1.5,7.2,1.5c6.6,0,12.7-3.7,15.6-9.6c1.3-2.4,1.8-5.2,1.8-7.9V16.5z M33.2,17.6L33.2,17.6
							c0,2.2-0.6,4.2-1.5,6.3c-2.4,4.8-7,7.5-12.3,7.5c-2,0-4.2-0.6-6.1-1.5c-0.4-0.2-0.9-0.2-1.5-0.2l-7,2.4l2.4-7
							c0.2-0.6,0.2-0.9-0.2-1.5c-0.9-1.8-1.5-4-1.5-6.1c0-5.3,2.9-9.9,7.7-12.3c1.8-0.9,4-1.5,6.1-1.5l0,0h0.7
							c7,0.4,12.5,5.9,13,12.9V17.6z"/>
					</g>
				</g>
			</g>
		</g>
	</g>
</g>
</svg>
