<?xml version="1.0" encoding="utf-8"?>
<!-- Generator: Adobe Illustrator 25.2.1, SVG Export Plug-In . SVG Version: 6.00 Build 0)  -->
<svg version="1.1" id="Layer_1" xmlns="http://www.w3.org/2000/svg" xmlns:xlink="http://www.w3.org/1999/xlink" x="0px" y="0px"
	 viewBox="0 0 26.1 26.1" style="enable-background:new 0 0 26.1 26.1;" xml:space="preserve">
<style type="text/css">
	.st0{fill:#38A3A5;}
	.st1{fill:#202D87;}
</style>
<g id="_x31_.0-Product-_x2013_-Overview-_x28_Parent-page_x29_-_5_" transform="translate(-150.000000, -1930.000000)">
	<g id="_x30_3-Page-Content-_x2F_-Feature-Tab_5_" transform="translate(0.000000, 1592.000000)">
		<g id="_x30_1-Component-_x2F_-Icon-_x2F_-Cog-_x2F_-Box_5_" transform="translate(150.000000, 338.000000)">
			<path id="Rectangle_5_" class="st0" d="M20.6,0H5.5C2.5,0,0,2.5,0,5.5v15.1c0,3,2.5,5.5,5.5,5.5h15.1c3,0,5.5-2.5,5.5-5.5V5.5
				C26.1,2.5,23.6,0,20.6,0z M5.4,1.8h15.2c2,0,3.6,1.6,3.6,3.6v15.2c0,2-1.6,3.6-3.6,3.6H5.4c-2,0-3.6-1.6-3.6-3.6V5.4
				C1.8,3.5,3.5,1.8,5.4,1.8z"/>
			<g id="_x30_1-Component-_x2F_-Icon-_x2F_-Cog_5_" transform="translate(23.500000, 23.066667)">
			</g>
		</g>
	</g>
</g>
<g>
	<g id="XMLID_794_">
		<path id="XMLID_795_" class="st1" d="M9.3,18.1c0.4-0.2,0.6-0.7,0.6-1.1c0-0.8-0.6-1.3-1.3-1.3s-1.3,0.6-1.3,1.3
			c0,0.5,0.2,0.9,0.6,1.1c-0.7,0.3-1.1,1-1.1,1.7h3.7C10.4,19,9.9,18.3,9.3,18.1z"/>
		<path id="XMLID_877_" class="st1" d="M13.9,18.1c0.4-0.2,0.6-0.7,0.6-1.1c0-0.8-0.6-1.3-1.3-1.3c-0.8,0-1.3,0.6-1.3,1.3
			c0,0.5,0.2,0.9,0.6,1.1c-0.7,0.3-1.1,1-1.1,1.7h3.7C15,19,14.5,18.3,13.9,18.1z"/>
		<path id="XMLID_879_" class="st1" d="M18.4,18.1c0.4-0.2,0.6-0.7,0.6-1.1c0-0.8-0.6-1.3-1.3-1.3c-0.8,0-1.3,0.6-1.3,1.3
			c0,0.5,0.2,0.9,0.6,1.1c-0.7,0.3-1.1,1-1.1,1.7h3.7C19.5,19,19,18.3,18.4,18.1z"/>
		<path id="XMLID_888_" class="st1" d="M12.7,13.4L12.7,13.4H8.2v1.5H9v-0.8h3.7v0.8h0.8v-0.8h3.7v0.8H18v-1.5h-4.5l0,0"/>
	</g>
	<path class="st1" d="M15.5,10.1V8c0-1.2-1.1-2.3-2.3-2.3H13c-1.2,0-2.3,1.1-2.3,2.3v2.1c0,1.2,1,2.2,2.1,2.3v1
		c0,0.1-0.1,0.2-0.2,0.2c-0.1,0-0.3,0.1-0.3,0.3s0.1,0.3,0.3,0.3c0.4,0,0.8-0.3,0.8-0.8v-1C14.5,12.3,15.5,11.4,15.5,10.1z
		 M13.4,11.9V9.5H15v0.6C15,11.1,14.3,11.8,13.4,11.9z M11.3,10.1V9.5h1.6v2.4C11.9,11.8,11.3,11.1,11.3,10.1z"/>
</g>
</svg>
