<?xml version="1.0" encoding="utf-8"?>
<!-- Generator: Adobe Illustrator 25.2.1, SVG Export Plug-In . SVG Version: 6.00 Build 0)  -->
<svg version="1.1" id="Layer_1" xmlns="http://www.w3.org/2000/svg" xmlns:xlink="http://www.w3.org/1999/xlink" x="0px" y="0px"
	 viewBox="0 0 26.1 26.1" style="enable-background:new 0 0 26.1 26.1;" xml:space="preserve">
<style type="text/css">
	.st0{fill:#38A3A5;}
	.st1{fill:#202D87;}
</style>
<g id="_x31_.0-Product-_x2013_-Overview-_x28_Parent-page_x29_-_9_" transform="translate(-150.000000, -1930.000000)">
	<g id="_x30_3-Page-Content-_x2F_-Feature-Tab_9_" transform="translate(0.000000, 1592.000000)">
		<g id="_x30_1-Component-_x2F_-Icon-_x2F_-Cog-_x2F_-Box_9_" transform="translate(150.000000, 338.000000)">
			<path id="Rectangle_9_" class="st0" d="M20,0H6.1C2.7,0,0,2.7,0,6.1V20c0,3.3,2.7,6.1,6.1,6.1H20c3.3,0,6.1-2.7,6.1-6.1V6.1
				C26.1,2.7,23.4,0,20,0z M6,1.8h14c2.3,0,4.2,1.9,4.2,4.2v14c0,2.3-1.9,4.2-4.2,4.2H6c-2.3,0-4.2-1.9-4.2-4.2V6
				C1.8,3.7,3.7,1.8,6,1.8z"/>
			<g id="_x30_1-Component-_x2F_-Icon-_x2F_-Cog_9_" transform="translate(23.500000, 23.066667)">
			</g>
		</g>
	</g>
</g>
<path class="st1" d="M18.5,9.7l-3.5-3.5c-0.1-0.1-0.2-0.1-0.3-0.1H8.9c-0.8,0-1.5,0.7-1.5,1.5v10.8c0,0.8,0.7,1.5,1.5,1.5h8.2
	c0.8,0,1.5-0.7,1.5-1.5V10C18.7,9.9,18.6,9.8,18.5,9.7L18.5,9.7z M15.2,7.5l2.1,2.1h-1.4c-0.4,0-0.7-0.3-0.7-0.7V7.5z M17.2,19.1
	H8.9c-0.4,0-0.7-0.3-0.7-0.7V7.6c0-0.4,0.3-0.7,0.7-0.7h5.4v2c0,0.8,0.7,1.5,1.5,1.5h2v8C17.8,18.8,17.5,19.1,17.2,19.1z"/>
<path class="st1" d="M16.5,17.4H9.6c-0.2,0-0.4,0.2-0.4,0.4s0.2,0.4,0.4,0.4h6.9c0.2,0,0.4-0.2,0.4-0.4S16.7,17.4,16.5,17.4z"/>
<path class="st1" d="M16.5,15.6H9.6c-0.2,0-0.4,0.2-0.4,0.4s0.2,0.4,0.4,0.4h6.9c0.2,0,0.4-0.2,0.4-0.4S16.7,15.6,16.5,15.6z"/>
<path class="st1" d="M16.5,13.9H9.6c-0.2,0-0.4,0.2-0.4,0.4s0.2,0.4,0.4,0.4h6.9c0.2,0,0.4-0.2,0.4-0.4S16.7,13.9,16.5,13.9z"/>
<path class="st1" d="M9.6,13h5.2c0.2,0,0.4-0.2,0.4-0.4s-0.2-0.4-0.4-0.4H9.6c-0.2,0-0.4,0.2-0.4,0.4S9.4,13,9.6,13z"/>
<path class="st1" d="M9.6,11.2h2.6c0.2,0,0.4-0.2,0.4-0.4V8.2c0-0.2-0.2-0.4-0.4-0.4H9.6C9.4,7.8,9.2,8,9.2,8.2v2.6
	C9.2,11.1,9.4,11.2,9.6,11.2z M10,8.6h1.8v1.8H10V8.6z"/>
</svg>
