<?xml version="1.0" encoding="utf-8"?>
<!-- Generator: Adobe Illustrator 25.1.0, SVG Export Plug-In . SVG Version: 6.00 Build 0)  -->
<svg version="1.1" id="Layer_1" xmlns="http://www.w3.org/2000/svg" xmlns:xlink="http://www.w3.org/1999/xlink" x="0px" y="0px"
	 viewBox="0 0 53.1 47" style="enable-background:new 0 0 53.1 47;" xml:space="preserve">
<style type="text/css">
	.st0{fill-rule:evenodd;clip-rule:evenodd;fill:#4056F4;}
	.st1{fill-rule:evenodd;clip-rule:evenodd;fill:#3AD8B6;}
	.st2{fill-rule:evenodd;clip-rule:evenodd;fill:#40B4F4;}
</style>
<g id="_x30_3-Page-Content-_x2F_-Benefit---Icon-_x26_-Paragraph" transform="translate(149.500000, 308.000000)">
	<g id="_x30_1-Component-_x2F_-Icon-_x2F_-Benefits-_x2F_-Customisable" transform="translate(0.014483, 0.000000)">
		<g id="Group-3" transform="translate(0.000000, 6.000000)">
			<path id="Combined-Shape" class="st0" d="M-138.9-311c6.8-2.4,13.6-2.4,20.4,0c4.3,2.5,7.2,5.9,8.8,10.1c2.3,6.3-5.8,7.7,0,11.5
				c3,1.9,3.9-0.4,4.9-3l0.2-0.4l0,0l0.2-0.4c0.9-2.1,1.9-4,4.3-3.2c5.5,1.8,3.2,17.7-11.8,22.4s-32.3-4.7-35.9-13.7
				S-149.1-307.5-138.9-311z M-129-285.8c-1.9,0-3.5,1.6-3.5,3.5c0,1.9,1.6,3.5,3.5,3.5c1.9,0,3.5-1.6,3.5-3.5
				C-125.5-284.2-127.1-285.8-129-285.8z M-118-285.8c-1.9,0-3.5,1.6-3.5,3.5c0,1.9,1.6,3.5,3.5,3.5c1.9,0,3.5-1.6,3.5-3.5
				C-114.5-284.2-116.1-285.8-118-285.8z M-140-292.8c-1.9,0-3.5,1.6-3.5,3.5c0,1.9,1.6,3.5,3.5,3.5s3.5-1.6,3.5-3.5
				C-136.5-291.2-138.1-292.8-140-292.8z M-141-303.8c-1.9,0-3.5,1.6-3.5,3.5c0,1.9,1.6,3.5,3.5,3.5s3.5-1.6,3.5-3.5
				C-137.5-302.2-139.1-303.8-141-303.8z M-129-307.8c-1.9,0-3.5,1.6-3.5,3.5c0,1.9,1.6,3.5,3.5,3.5c1.9,0,3.5-1.6,3.5-3.5
				C-125.5-306.2-127.1-307.8-129-307.8z"/>
			<path id="Combined-Shape_1_" class="st1" d="M-105.3-299.1c3.1-8.8,6.8-15.4,8.3-14.8c1.5,0.6,0.2,8.1-2.8,16.9
				c-1.8,5.2-3.9,9.6-5.5,12.3l-1.7,4.8c0.8,4.1,0,7-2.4,8.6c-2.8,1.9-4.8,3.4-5.9,4.4c-0.3-6.1,0.5-10,2.1-11.9
				c0.9-1,1.9-1.9,2.9-2.5l1.6-4.6C-108.3-289.2-107.1-294-105.3-299.1z"/>
			<path id="Combined-Shape_2_" class="st2" d="M-100.3-296.4c0.3,0.1,0.5,0.2,0.7,0.3c-1.8,4.7-3.7,8.6-5.3,11l-1.7,4.7
				c0.3,1.3,0.4,2.5,0.3,3.5c-1.7,1.1-3.8,2.1-6.1,2.8c-0.9,0.3-1.9,0.5-2.8,0.7c0.3-2.9,0.9-4.9,2.1-6c1-1,2-1.8,3-2.4l1.6-4.5
				c0.1-0.7,0.2-1.5,0.4-2.4c1.7,0,2.4-2,3.3-4.1l0.2-0.4C-103.8-295.3-102.7-297.2-100.3-296.4z"/>
		</g>
	</g>
</g>
</svg>
