<?xml version="1.0" encoding="utf-8"?>
<!-- Generator: Adobe Illustrator 25.2.1, SVG Export Plug-In . SVG Version: 6.00 Build 0)  -->
<svg version="1.1" id="Layer_1" xmlns="http://www.w3.org/2000/svg" xmlns:xlink="http://www.w3.org/1999/xlink" x="0px" y="0px"
	 viewBox="0 0 26.1 26.1" style="enable-background:new 0 0 26.1 26.1;" xml:space="preserve">
<style type="text/css">
	.st0{fill:#38A3A5;}
	.st1{fill:#202D87;}
</style>
<g id="_x31_.0-Product-_x2013_-Overview-_x28_Parent-page_x29_-_1_" transform="translate(-150.000000, -1930.000000)">
	<g id="_x30_3-Page-Content-_x2F_-Feature-Tab_1_" transform="translate(0.000000, 1592.000000)">
		<g id="_x30_1-Component-_x2F_-Icon-_x2F_-Cog-_x2F_-Box_1_" transform="translate(150.000000, 338.000000)">
			<path id="Rectangle_1_" class="st0" d="M20.6,0H5.5C2.5,0,0,2.5,0,5.5v15.1c0,3,2.5,5.5,5.5,5.5h15.1c3,0,5.5-2.5,5.5-5.5V5.5
				C26.1,2.5,23.6,0,20.6,0z M5.4,1.8h15.2c2,0,3.6,1.6,3.6,3.6v15.2c0,2-1.6,3.6-3.6,3.6H5.4c-2,0-3.6-1.6-3.6-3.6V5.4
				C1.8,3.5,3.5,1.8,5.4,1.8z"/>
			<g id="_x30_1-Component-_x2F_-Icon-_x2F_-Cog_1_" transform="translate(23.500000, 23.066667)">
			</g>
		</g>
	</g>
</g>
<g>
	<g>
		<g>
			<path class="st1" d="M18.6,9.7c-0.2-0.2-0.5-0.2-0.7-0.1c-0.8,0.5-5.1,3.5-5.5,3.9c-0.6,0.6-0.6,1.7,0,2.4
				c0.3,0.3,0.7,0.5,1.2,0.5c0.4,0,0.8-0.2,1.2-0.5c0.4-0.4,3.4-4.7,3.9-5.5C18.8,10.2,18.8,9.9,18.6,9.7z M13.9,15.2
				c-0.2,0.2-0.5,0.2-0.8,0c-0.2-0.2-0.2-0.5,0-0.8c0.2-0.2,1.4-1.1,2.9-2.1C15,13.8,14,15,13.9,15.2z"/>
			<path class="st1" d="M8.8,17.4l-0.7,0.3c-0.5-1-0.7-1.9-0.7-3c0-0.7,0.1-1.5,0.4-2.1l0.8,0.4c0.1,0,0.2,0.1,0.2,0.1
				c0.2,0,0.4-0.1,0.5-0.3c0.1-0.3,0-0.6-0.3-0.7l-0.7-0.5C9.3,10,11,8.8,13,8.7v0.8c0,0.3,0.2,0.5,0.5,0.5c0.3,0,0.5-0.2,0.5-0.5
				V8.7c0.6,0.1,1.4,0.2,1.9,0.5c0.3,0.1,0.6,0,0.7-0.3c0.1-0.3,0-0.6-0.3-0.7c-1-0.4-1.9-0.6-3-0.6c-1.9,0-3.7,0.7-5.1,2.1
				s-2.1,3.2-2.1,5.1c0,1.5,0.4,2.9,1.3,4C7.6,19,7.8,19,7.9,19c0.1,0,0.2,0,0.2-0.1l1.2-0.5c0.3-0.1,0.4-0.4,0.2-0.7
				C9.5,17.4,9.2,17.3,8.8,17.4z"/>
			<path class="st1" d="M20.1,11.8c-0.1-0.3-0.4-0.4-0.7-0.3c-0.3,0.1-0.4,0.4-0.3,0.7c0.3,0.7,0.5,1.6,0.5,2.5c0,1.1-0.3,2-0.7,3
				l-0.7-0.3c-0.3-0.1-0.6,0-0.7,0.3c-0.1,0.3,0,0.6,0.3,0.7l1.2,0.5c0.1,0,0.2,0.1,0.2,0.1c0.2,0,0.3-0.1,0.4-0.2
				c0.8-1.2,1.3-2.5,1.3-4C20.7,13.7,20.5,12.8,20.1,11.8z"/>
		</g>
	</g>
</g>
</svg>
