<?xml version="1.0" encoding="utf-8"?>
<!-- Generator: Adobe Illustrator 25.1.0, SVG Export Plug-In . SVG Version: 6.00 Build 0)  -->
<svg version="1.1" id="Layer_1" xmlns="http://www.w3.org/2000/svg" xmlns:xlink="http://www.w3.org/1999/xlink" x="0px" y="0px"
	 viewBox="0 0 657 322" style="enable-background:new 0 0 657 322;" xml:space="preserve">
<style type="text/css">
	.st0{filter:url(#Adobe_OpacityMaskFilter);}
	.st1{fill-rule:evenodd;clip-rule:evenodd;fill:#FFFFFF;}
	.st2{opacity:0.2623;mask:url(#mask-2_1_);}
</style>
<g id="_xD83C__xDFA8_-UI-Design">
	<g id="_x36_.0-Who-we-are" transform="translate(-150.000000, -2798.000000)">
		<g id="Group" transform="translate(150.000000, 2798.000000)">
			<g id="Mask">
			</g>
			<defs>
				<filter id="Adobe_OpacityMaskFilter" filterUnits="userSpaceOnUse" x="5" y="-351" width="889" height="929">
					<feColorMatrix  type="matrix" values="1 0 0 0 0  0 1 0 0 0  0 0 1 0 0  0 0 0 1 0"/>
				</filter>
			</defs>
			<mask maskUnits="userSpaceOnUse" x="5" y="-351" width="889" height="929" id="mask-2_1_">
				<g class="st0">
					<path id="path-1_1_" class="st1" d="M-475,0H649c4.4,0,8,3.6,8,8v306c0,4.4-3.6,8-8,8H-475c-4.4,0-8-3.6-8-8V8
						C-483,3.6-479.4,0-475,0z"/>
				</g>
			</mask>
			<g id="Path" class="st2">
				<g transform="translate(488.000000, -351.000000)">
					<path class="st1" d="M-420.9,452.4c102.1-147,271.2-182.3,455.1-108.9c22.2,10.7,59.6,4.1,77-20.8
						c17.3-24.9,14.6-58.5-4.4-83.6l51.5-74.1c49.2,59.2,57.9,141.5,15.9,202.1c-38.5,55.4-108.6,76.8-175.4,59.8
						c-127.1-50.2-269.2-30.2-344.6,78.4s-52.5,258.2,48.9,347.3l-53.1,76.4C-493.9,812.9-526.5,604.5-420.9,452.4z"/>
					<path class="st1" d="M343.9,476.6c-102.1,147-271.2,182.3-455.1,108.9c-22.2-10.7-59.6-4.1-77,20.8
						c-17.3,24.9-14.6,58.5,4.4,83.6l-51.5,74.1c-49.2-59.2-57.9-141.5-15.9-202.1c38.5-55.4,108.6-76.8,175.4-59.8
						c127.1,50.2,269.2,30.2,344.6-78.4s52.5-258.2-48.9-347.3L273.2,0C416.9,116.1,449.5,324.5,343.9,476.6z"/>
				</g>
			</g>
		</g>
	</g>
</g>
</svg>
