<?xml version="1.0" encoding="utf-8"?>
<!-- Generator: Adobe Illustrator 25.1.0, SVG Export Plug-In . SVG Version: 6.00 Build 0)  -->
<svg version="1.1" id="Layer_1" xmlns="http://www.w3.org/2000/svg" xmlns:xlink="http://www.w3.org/1999/xlink" x="0px" y="0px"
	 viewBox="0 0 135.6 115.2" style="enable-background:new 0 0 135.6 115.2;" xml:space="preserve">
<style type="text/css">
	.st0{filter:url(#Adobe_OpacityMaskFilter);}
	.st1{fill-rule:evenodd;clip-rule:evenodd;fill:#FFFFFF;}
	.st2{opacity:0.138;mask:url(#mask-2_1_);}
	.st3{fill-rule:evenodd;clip-rule:evenodd;fill:#38A3A5;}
</style>
<g id="_x30_1-Component-_x2F_-Logo-_x2F_-Icon-_x2F_-Large-_x2F_-Monteserra" transform="translate(293.000000, 259.566563)">
	<g id="Mask">
	</g>
	<defs>
		<filter id="Adobe_OpacityMaskFilter" filterUnits="userSpaceOnUse" x="-292.5" y="-348.4" width="262.1" height="271.4">
			<feColorMatrix  type="matrix" values="1 0 0 0 0  0 1 0 0 0  0 0 1 0 0  0 0 0 1 0"/>
		</filter>
	</defs>
	<mask maskUnits="userSpaceOnUse" x="-292.5" y="-348.4" width="262.1" height="271.4" id="mask-2_1_">
		<g class="st0">
			<rect id="path-1_1_" x="-312.8" y="-259.8" class="st1" width="154.4" height="114.9"/>
		</g>
	</mask>
	<g id="Combined-Shape" class="st2">
		
			<g transform="translate(500.000000, 155.834365) scale(1, -1) translate(-500.000000, -155.834365) translate(67.000000, -292.665635)">
			<path class="st3" d="M-170.5,904.5c14.5-17.3,17.1-41.3,4.7-59c-11.3-16.2-32-22.4-51.7-17.5c-37.5,14.7-79.3,8.8-101.6-22.9
				c-22.2-31.7-15.5-75.4,14.4-101.4l-15.7-22.3c-42.3,33.9-52,94.8-20.8,139.2c30.1,42.9,79.9,53.2,134.1,31.8
				c6.5-3.1,17.6-1.2,22.7,6.1c5.1,7.3,4.3,17.1-1.3,24.4L-170.5,904.5z M-136.5,952.8c42.3-33.9,52-94.8,20.8-139.2
				c-30.1-42.9-79.9-53.2-134.1-31.8c-6.5,3.1-17.6,1.2-22.7-6.1c-5.1-7.3-4.3-17.1,1.3-24.4l-15.2-21.6
				c-14.5,17.3-17.1,41.3-4.7,59c11.3,16.2,32,22.4,51.7,17.5c37.5-14.7,79.3-8.8,101.6,22.9c22.2,31.7,15.5,75.4-14.4,101.4
				L-136.5,952.8z"/>
		</g>
	</g>
</g>
</svg>
