<?xml version="1.0" encoding="UTF-8"?>
<svg width="413px" height="310px" viewBox="0 0 413 310" version="1.1" xmlns="http://www.w3.org/2000/svg" xmlns:xlink="http://www.w3.org/1999/xlink">
    <title>48BE8879-D769-4A5B-9BDE-CEE2CD15FB7D@2x</title>
    <defs>
        <rect id="path-1" x="0" y="0" width="413" height="310"></rect>
    </defs>
    <g id="🎨-UI-Design" stroke="none" stroke-width="1" fill="none" fill-rule="evenodd">
        <g id="1.0-Product-–-Overview-(Parent-page)-" transform="translate(-1027.000000, -1592.000000)">
            <g id="03-Page-Content-/-Feature-Tab" transform="translate(0.000000, 1592.000000)">
                <g id="01-Component-/-Logo-/-Icon-/-Large-/-Monteserra" transform="translate(1233.500000, 155.000000) scale(1, -1) translate(-1233.500000, -155.000000) translate(1027.000000, 0.000000)">
                    <mask id="mask-2" fill="white">
                        <use xlink:href="#path-1"></use>
                    </mask>
                    <g id="Mask"></g>
                    <g mask="url(#mask-2)" fill="#38A3A5" id="Combined-Shape" opacity="0.138020833">
                        <g transform="translate(404.500000, 126.500000) scale(1, -1) translate(-404.500000, -126.500000) translate(54.000000, -240.000000)">
                            <path d="M505.401147,130.401105 C544.18784,177.105672 551.036115,242.040808 517.895173,289.781558 C487.551659,333.492511 432.314046,350.35884 379.62656,336.937891 C279.425827,297.355694 167.476947,313.115868 107.991349,398.80707 C48.505751,484.498272 66.6394145,602.484335 146.539654,672.705668 L104.672227,733 C-8.5791135,641.434426 -34.2706053,477.041701 48.9741375,357.124573 C129.439764,241.210865 262.694275,213.324274 407.656959,271.205218 C425.121835,279.626596 454.669143,274.428236 468.318099,254.766412 C481.967054,235.104587 479.789366,208.637692 464.84697,188.838798 L505.401147,130.401105 Z M596.327773,0 C709.579114,91.565574 735.270605,255.958299 652.025862,375.875427 C571.560236,491.789135 438.305725,519.675726 293.343041,461.794782 C275.878165,453.373404 246.330857,458.571764 232.681901,478.233588 C219.032946,497.895413 221.210634,524.362308 236.15303,544.161202 L195.598853,602.598895 C156.81216,555.894328 149.963885,490.959192 183.104827,443.218442 C213.448341,399.507489 268.685954,382.64116 321.37344,396.062109 C421.574173,435.644306 533.523053,419.884132 593.008651,334.19293 C652.494249,248.501728 634.360585,130.515665 554.460346,60.2943318 L596.327773,0 Z" transform="translate(350.500000, 366.500000) scale(1, -1) translate(-350.500000, -366.500000) "></path>
                        </g>
                    </g>
                </g>
            </g>
        </g>
    </g>
</svg>