<?xml version="1.0" encoding="utf-8"?>
<!-- Generator: Adobe Illustrator 25.1.0, SVG Export Plug-In . SVG Version: 6.00 Build 0)  -->
<svg version="1.1" id="Layer_1" xmlns="http://www.w3.org/2000/svg" xmlns:xlink="http://www.w3.org/1999/xlink" x="0px" y="0px"
	 viewBox="0 0 65.4 56" style="enable-background:new 0 0 65.4 56;" xml:space="preserve">
<style type="text/css">
	.st0{filter:url(#Adobe_OpacityMaskFilter);}
	.st1{fill-rule:evenodd;clip-rule:evenodd;fill:#FFFFFF;}
	.st2{opacity:0.138;mask:url(#mask-9_2_);}
	.st3{fill-rule:evenodd;clip-rule:evenodd;fill:#38A3A5;}
</style>
<g id="_x30_1-Component-_x2F_-Logo-_x2F_-Icon-_x2F_-Large-_x2F_-Monteserra" transform="translate(930.000000, 4749.500000)">
	<g id="Mask_1_">
	</g>
	<defs>
		<filter id="Adobe_OpacityMaskFilter" filterUnits="userSpaceOnUse" x="-929" y="-4792.5" width="125.4" height="131">
			<feColorMatrix  type="matrix" values="1 0 0 0 0  0 1 0 0 0  0 0 1 0 0  0 0 0 1 0"/>
		</filter>
	</defs>
	<mask maskUnits="userSpaceOnUse" x="-929" y="-4792.5" width="125.4" height="131" id="mask-9_2_">
		<g class="st0">
			<rect id="path-8_2_" x="-938.7" y="-4749.7" class="st1" width="73.8" height="55.4"/>
		</g>
	</mask>
	<g id="Combined-Shape_2_" class="st2">
		
			<g transform="translate(500.000000, 157.500000) scale(1, -1) translate(-500.000000, -157.500000) translate(67.000000, -295.000000)">
			<path class="st3" d="M-905.6,5379.2c6.9-8.3,8.2-20,2.2-28.5c-5.4-7.8-15.3-10.8-24.7-8.4c-17.9,7.1-37.9,4.3-48.6-11.1
				c-10.6-15.3-7.4-36.4,6.9-49l-7.5-10.8c-20.3,16.4-24.8,45.7-10,67.2c14.4,20.7,38.2,25.7,64.1,15.4c3.1-1.5,8.4-0.6,10.8,2.9
				c2.4,3.5,2.1,8.2-0.6,11.8L-905.6,5379.2z M-889.4,5402.5c20.3-16.4,24.8-45.7,10-67.2c-14.4-20.7-38.2-25.7-64.1-15.4
				c-3.1,1.5-8.4,0.6-10.8-2.9c-2.4-3.5-2.1-8.2,0.6-11.8l-7.3-10.4c-6.9,8.3-8.2,20-2.2,28.5c5.4,7.8,15.3,10.8,24.7,8.4
				c17.9-7.1,37.9-4.3,48.6,11.1s7.4,36.4-6.9,49L-889.4,5402.5z"/>
		</g>
	</g>
</g>
</svg>
