<?xml version="1.0" encoding="UTF-8"?>
<svg width="465px" height="310px" viewBox="0 0 465 310" version="1.1" xmlns="http://www.w3.org/2000/svg" xmlns:xlink="http://www.w3.org/1999/xlink">
    <title>530CB620-2F3B-4047-AA5E-75BC16FF1BE3@2x</title>
    <g id="🎨-UI-Design" stroke="none" stroke-width="1" fill="none" fill-rule="evenodd">
        <g id="6.0-Who-we-are" transform="translate(-975.000000, -96.000000)" fill="#FFFFFF">
            <g id="01-Component-/-Hero-Banner-/-General-/-Dark" transform="translate(0.000000, 95.000000)">
                <g id="Combined-Shape" transform="translate(0.000000, 0.886249)">
                    <path d="M1555.78242,131.480623 C1583.25196,218.832727 1653.51921,284.366544 1741.87043,277.864372 C1830.22165,271.362201 1898.37139,196.320989 1901.97402,106.004022 L1964.1464,101.436851 C1964.29651,225.194846 1869.56941,330.032569 1745.92982,339.131773 C1626.41793,347.927201 1536.75571,274.799494 1497.42166,148.095717 C1493.63813,132.05673 1474.40676,115.315174 1454.1346,116.807096 C1434.06516,118.284098 1413.13712,131.218159 1412.72056,152.890605 L1412.71424,153.550018 C1412.86435,277.308013 1317.13454,382.188128 1193.49496,391.287332 C1073.98306,400.08276 984.320841,326.955053 944.986793,200.251276 C941.203264,184.212288 921.9719,167.470733 901.699734,168.962655 C881.427569,170.454576 865.129272,186.039324 860.056915,206.492956 L799.811849,210.935365 C809.885017,160.348746 849.066949,121.117847 898.289664,117.495321 C943.35749,114.178573 984.026204,141.65572 1003.34756,183.636182 C1030.81709,270.988286 1101.08434,336.522102 1189.43556,330.019931 C1276.11273,323.640961 1347.12509,246.859131 1353.18672,158.672017 L1353.11066,158.677262 C1353.11066,109.221567 1401.50181,68.9622876 1450.72453,65.3397624 C1495.79235,62.0230146 1536.46107,89.5001609 1555.78242,131.480623 Z M1684.30637,121.748724 C1688.0899,137.787712 1707.32126,154.529267 1727.59343,153.037345 C1747.86559,151.545424 1764.16389,135.960676 1769.23625,115.507045 L1829.48131,111.064635 C1819.40814,161.651255 1780.22621,200.882154 1731.0035,204.504679 C1685.93567,207.821427 1645.26696,180.344281 1625.9456,138.363819 C1598.47607,51.011714 1528.20882,-14.5221024 1439.8576,-8.01993113 C1352.39776,-1.5833606 1282.08062,71.4084648 1277.17597,160.491463 L1277.27263,160.483764 C1281.21239,212.301628 1227.79135,253.037712 1178.56863,256.660237 C1133.50081,259.976985 1092.83209,232.499839 1073.51074,190.519377 C1046.0412,103.167273 975.773955,37.6334563 887.422733,44.1356277 C799.071511,50.637799 730.921768,125.67901 727.319144,215.995978 L665.146758,220.563149 C664.99665,96.8051543 759.723753,-8.03256938 883.363339,-17.1317732 C1002.87523,-25.9272011 1092.53745,47.2005059 1131.8715,173.904283 C1135.65503,189.94327 1154.8864,206.684825 1175.15856,205.192904 C1194.90172,203.739914 1216.59761,194.901531 1216.88941,167.657864 L1216.80138,167.662603 C1216.65127,43.9046083 1312.15862,-60.1881283 1435.7982,-69.287332 C1555.3101,-78.0827599 1644.97232,-4.95505275 1684.30637,121.748724 Z" transform="translate(1314.646580, 161.000000) rotate(37.000000) translate(-1314.646580, -161.000000) "></path>
                </g>
            </g>
        </g>
    </g>
</svg>