<?xml version="1.0" encoding="utf-8"?>
<!-- Generator: Adobe Illustrator 25.2.1, SVG Export Plug-In . SVG Version: 6.00 Build 0)  -->
<svg version="1.1" id="Layer_1" xmlns="http://www.w3.org/2000/svg" xmlns:xlink="http://www.w3.org/1999/xlink" x="0px" y="0px"
	 viewBox="0 0 26.1 26.1" style="enable-background:new 0 0 26.1 26.1;" xml:space="preserve">
<style type="text/css">
	.st0{fill:#38A3A5;}
	.st1{fill:#202D87;}
</style>
<g id="_x31_.0-Product-_x2013_-Overview-_x28_Parent-page_x29_-_14_" transform="translate(-150.000000, -1930.000000)">
	<g id="_x30_3-Page-Content-_x2F_-Feature-Tab_14_" transform="translate(0.000000, 1592.000000)">
		<g id="_x30_1-Component-_x2F_-Icon-_x2F_-Cog-_x2F_-Box_14_" transform="translate(150.000000, 338.000000)">
			<path id="Rectangle_14_" class="st0" d="M20,0H6.1C2.7,0,0,2.7,0,6.1V20c0,3.3,2.7,6.1,6.1,6.1H20c3.3,0,6.1-2.7,6.1-6.1V6.1
				C26.1,2.7,23.4,0,20,0z M6,1.8h14c2.3,0,4.2,1.9,4.2,4.2v14c0,2.3-1.9,4.2-4.2,4.2H6c-2.3,0-4.2-1.9-4.2-4.2V6
				C1.8,3.7,3.7,1.8,6,1.8z"/>
			<g id="_x30_1-Component-_x2F_-Icon-_x2F_-Cog_14_" transform="translate(23.500000, 23.066667)">
			</g>
		</g>
	</g>
</g>
<g>
	<g>
		<path class="st1" d="M19.5,9.8h-1.4v0.6h1.4c0.2,0,0.3,0.1,0.3,0.3v6.7c0,0.2-0.1,0.3-0.3,0.3h-3.9c-0.1,0-0.1,0-0.2,0.1l-0.6,0.6
			v-0.4c0-0.2-0.1-0.3-0.3-0.3h-3.9c-0.2,0-0.3-0.1-0.3-0.3v-0.8H9.8v0.8c0,0.5,0.4,0.8,0.8,0.8h3.6V19c0,0.2,0.1,0.3,0.3,0.3
			c0.1,0,0.1,0,0.2-0.1l1-1h3.8c0.5,0,0.8-0.4,0.8-0.8v-6.7C20.4,10.2,20,9.8,19.5,9.8z"/>
	</g>
</g>
<g>
	<g>
		<path class="st1" d="M16.8,7.6H7.8C7.4,7.6,7,8,7,8.4v6.7C7,15.6,7.4,16,7.8,16h3.9v0.8c0,0.2,0.1,0.3,0.3,0.3
			c0.1,0,0.1,0,0.2-0.1l1-1h3.5c0.5,0,0.8-0.4,0.8-0.8V8.4C17.6,8,17.2,7.6,16.8,7.6z M17,15.1c0,0.2-0.1,0.3-0.3,0.3h-3.6
			c-0.1,0-0.1,0-0.2,0.1l-0.6,0.6v-0.4c0-0.2-0.1-0.3-0.3-0.3H7.8c-0.2,0-0.3-0.1-0.3-0.3V8.4c0-0.2,0.1-0.3,0.3-0.3h8.9
			c0.2,0,0.3,0.1,0.3,0.3V15.1z"/>
	</g>
</g>
<g>
	<g>
		<rect x="8.4" y="9.8" class="st1" width="3.1" height="0.6"/>
	</g>
</g>
<g>
	<g>
		<rect x="8.4" y="11.5" class="st1" width="7.8" height="0.6"/>
	</g>
</g>
<g>
	<g>
		<rect x="8.4" y="13.2" class="st1" width="7.8" height="0.6"/>
	</g>
</g>
<g>
	<g>
		<rect x="15.6" y="9.8" class="st1" width="0.6" height="0.6"/>
	</g>
</g>
<g>
	<g>
		<rect x="14.5" y="9.8" class="st1" width="0.6" height="0.6"/>
	</g>
</g>
</svg>
