<svg id="Layer_1" data-name="Layer 1" xmlns="http://www.w3.org/2000/svg" viewBox="0 0 149.14 30.82"><defs><style>.cls-1{fill:#2883df;}</style></defs><title>Jt-logo-primary-blue</title><g id="JT_logo_light_blue" data-name="JT logo light blue"><g id="JT_logo_lt_blue" data-name="JT logo lt blue"><path class="cls-1" d="M37.07,12A17.64,17.64,0,0,0,20.82,28.25,13.46,13.46,0,0,0,35.35,42.77,17.63,17.63,0,0,0,51.6,26.53,13.47,13.47,0,0,0,37.07,12Zm8.6,15.56a13,13,0,0,1-12,12A9.91,9.91,0,0,1,23,28.82,13,13,0,0,1,35,16.87,9.91,9.91,0,0,1,45.67,27.56Z" transform="translate(-20.8 -11.97)"/><path class="cls-1" d="M33.8,20.9a9.4,9.4,0,0,0-8.67,8.67,7.19,7.19,0,0,0,7.75,7.75,9.43,9.43,0,0,0,8.67-8.67A7.19,7.19,0,0,0,33.8,20.9ZM32.2,35.4a4.93,4.93,0,0,1-5.32-5.32,6.44,6.44,0,0,1,5.95-5.95,4.93,4.93,0,0,1,5.32,5.32A6.47,6.47,0,0,1,32.2,35.4Z" transform="translate(-20.8 -11.97)"/><path class="cls-1" d="M32.35,27.7a2.81,2.81,0,0,0-2.6,2.59,2.16,2.16,0,0,0,2.32,2.32A2.81,2.81,0,0,0,34.66,30,2.14,2.14,0,0,0,32.35,27.7Z" transform="translate(-20.8 -11.97)"/><path class="cls-1" d="M63.38,29.8c0,2.71-.75,5.28-5,5.28-2.46,0-4.27-1.08-4.77-3.42l3.14-.72a1.57,1.57,0,0,0,1.54,1.28c1.61,0,1.63-1.68,1.63-2.77v-9.4h3.43Z" transform="translate(-20.8 -11.97)"/><path class="cls-1" d="M72.42,19.77c4.8,0,8.29,3,8.29,7.7s-3.49,7.7-8.29,7.7-8.28-3-8.28-7.7S67.63,19.77,72.42,19.77Zm0,12.42a4.53,4.53,0,0,0,4.78-4.72,4.78,4.78,0,0,0-9.55,0A4.53,4.53,0,0,0,72.42,32.19Z" transform="translate(-20.8 -11.97)"/><path class="cls-1" d="M81.54,20.05h5.72c2.68,0,5.6.54,5.6,3.74A3.34,3.34,0,0,1,90.22,27v0a3.59,3.59,0,0,1,3.36,3.6c0,3.08-3,4.1-5.76,4.1H81.54ZM85,25.9h2.38c1,0,2.06-.4,2.06-1.54s-1.18-1.49-2.21-1.49H85Zm0,6.26H88.1c1.1,0,2.32-.45,2.32-1.77s-1.67-1.66-2.81-1.66H85Z" transform="translate(-20.8 -11.97)"/><path class="cls-1" d="M97.89,23.07H93.45V20.25h12.11v2.82h-4.24V34.78H97.89Z" transform="translate(-20.8 -11.97)"/><path class="cls-1" d="M108.49,20.05h2.82L118,34.78h-4l-1.29-3H107l-1.25,3h-3.88Zm1.31,4.32-1.86,4.56h3.75Z" transform="translate(-20.8 -11.97)"/><path class="cls-1" d="M118.68,20.05h6c3.18,0,5.87,1,5.87,4.47a3.85,3.85,0,0,1-3.37,4l4,6.22H127l-3.21-5.85h-1.67v5.85h-3.43Zm3.43,6.25h2c1.28,0,2.93,0,2.93-1.68s-1.43-1.75-2.7-1.75h-2.28Z" transform="translate(-20.8 -11.97)"/><path class="cls-1" d="M145.52,33.76a14.15,14.15,0,0,1-6.39,1.41c-4.76,0-8.22-3-8.22-7.7s3.46-7.7,8.22-7.7a8.9,8.9,0,0,1,6.07,1.88l-2.37,2.49a4.74,4.74,0,0,0-3.7-1.39,4.51,4.51,0,0,0-4.74,4.72,4.51,4.51,0,0,0,4.74,4.72,6.76,6.76,0,0,0,3.16-.73V29.13h-2.82v-3h6.05Z" transform="translate(-20.8 -11.97)"/><path class="cls-1" d="M146.53,20.05H157v3H150V25.9H157v2.83H150v3H157v3H146.53Z" transform="translate(-20.8 -11.97)"/><path class="cls-1" d="M162.07,23.07h-4.24V20.25h12.11v2.82H165.5V34.78h-3.43Z" transform="translate(-20.8 -11.97)"/></g></g></svg>