<?xml version="1.0" encoding="utf-8"?>
<!-- Generator: Adobe Illustrator 25.1.0, SVG Export Plug-In . SVG Version: 6.00 Build 0)  -->
<svg version="1.1" id="Layer_1" xmlns="http://www.w3.org/2000/svg" xmlns:xlink="http://www.w3.org/1999/xlink" x="0px" y="0px"
	 viewBox="0 0 71 71" style="enable-background:new 0 0 71 71;" xml:space="preserve">
<style type="text/css">
	.st0{fill:#38A3A5;}
	.st1{fill-rule:evenodd;clip-rule:evenodd;fill:#202D87;}
</style>
<g id="_x30_.1-Home" transform="translate(-540.000000, -1501.000000)">
	<g id="_x30_3-Page-Content-_x2F_-Convincer-Banner" transform="translate(0.000000, 1422.000000)">
		<g id="_x30_1-Component-_x2F_-Icon-_x2F_-Speech-_x2F_-Box" transform="translate(540.000000, 79.000000)">
			<path id="Rectangle" class="st0" d="M56.1,0H14.9C6.7,0,0,6.7,0,14.9v41.2C0,64.3,6.7,71,14.9,71h41.2C64.3,71,71,64.3,71,56.1
				V14.9C71,6.7,64.3,0,56.1,0z M14.8,5h41.4c5.4,0,9.8,4.4,9.8,9.8v41.4c0,5.4-4.4,9.8-9.8,9.8H14.8C9.4,66,5,61.6,5,56.2V14.8
				C5,9.4,9.4,5,14.8,5z"/>
			<g id="_x30_1-Component-_x2F_-Icon-_x2F_-Cog" transform="translate(16.500000, 17.066667)">
				<path id="Rectangle_1_" class="st1" d="M7.8,7.2L7.8,7.2c1,0,1.8,0.8,1.8,1.8v20.3c0,1-0.8,1.8-1.8,1.8h0c-1,0-1.8-0.8-1.8-1.8
					V9C6,8,6.8,7.2,7.8,7.2z"/>
				<path id="Rectangle_2_" class="st1" d="M3,13.1L3,13.1c1,0,1.8,0.8,1.8,1.8v9.5c0,1-0.8,1.8-1.8,1.8h0c-1,0-1.8-0.8-1.8-1.8
					v-9.5C1.2,13.9,2,13.1,3,13.1z"/>
				<path id="Rectangle_3_" class="st1" d="M29.2,7.2L29.2,7.2C30.2,7.2,31,8,31,9v20.3c0,1-0.8,1.8-1.8,1.8h0c-1,0-1.8-0.8-1.8-1.8
					V9C27.5,8,28.3,7.2,29.2,7.2z"/>
				<path id="Rectangle_4_" class="st1" d="M34,13.1L34,13.1c1,0,1.8,0.8,1.8,1.8v9.5c0,1-0.8,1.8-1.8,1.8h0c-1,0-1.8-0.8-1.8-1.8
					v-9.5C32.2,13.9,33,13.1,34,13.1z"/>
				<path id="Rectangle_5_" class="st1" d="M12.5,17.9h11.9c1,0,1.8,0.8,1.8,1.8v0c0,1-0.8,1.8-1.8,1.8H12.5c-1,0-1.8-0.8-1.8-1.8v0
					C10.7,18.7,11.5,17.9,12.5,17.9z"/>
			</g>
		</g>
	</g>
</g>
</svg>
