<?xml version="1.0" encoding="utf-8"?>
<!-- Generator: Adobe Illustrator 25.1.0, SVG Export Plug-In . SVG Version: 6.00 Build 0)  -->
<svg version="1.1" id="Layer_1" xmlns="http://www.w3.org/2000/svg" xmlns:xlink="http://www.w3.org/1999/xlink" x="0px" y="0px"
	 viewBox="0 0 27.6 30" style="enable-background:new 0 0 27.6 30;" xml:space="preserve">
<style type="text/css">
	.st0{filter:url(#Adobe_OpacityMaskFilter);}
	.st1{fill-rule:evenodd;clip-rule:evenodd;fill:#FFFFFF;}
	.st2{opacity:0.3983;mask:url(#mask-12_2_);}
	.st3{opacity:0.138;}
	.st4{fill-rule:evenodd;clip-rule:evenodd;fill:#38A3A5;}
</style>
<defs>
	<filter id="Adobe_OpacityMaskFilter" filterUnits="userSpaceOnUse" x="0" y="-26" width="75.6" height="79">
		<feColorMatrix  type="matrix" values="1 0 0 0 0  0 1 0 0 0  0 0 1 0 0  0 0 0 1 0"/>
	</filter>
</defs>
<mask maskUnits="userSpaceOnUse" x="0" y="-26" width="75.6" height="79" id="mask-12_2_">
	<g class="st0">
		<path id="path-11_2_" class="st1" d="M-12.8-11.9h39.4c0.5,0,0.9,0.4,0.9,0.9v40.2c0,0.5-0.4,0.9-0.9,0.9h-39.4
			c-0.5,0-0.9-0.4-0.9-0.9V-11C-13.7-11.5-13.3-11.9-12.8-11.9z"/>
	</g>
</mask>
<g id="Combined-Shape_1_" class="st2">
	
		<g transform="translate(450.000000, 222.000000) scale(1, -1) translate(-450.000000, -222.000000) translate(120.000000, -123.000000)" class="st3">
		<path class="st4" d="M-65.5,578.9c4.2-5,4.9-12,1.3-17.2c-3.3-4.7-9.2-6.5-14.9-5.1c-10.8,4.3-22.9,2.6-29.3-6.7
			c-6.4-9.2-4.5-22,4.2-29.5l-4.5-6.5c-12.2,9.9-15,27.6-6,40.5c8.7,12.5,23,15.5,38.7,9.3c1.9-0.9,5.1-0.3,6.5,1.8
			c1.5,2.1,1.2,5-0.4,7.1L-65.5,578.9z M-55.7,593c12.2-9.9,15-27.6,6-40.5c-8.7-12.5-23-15.5-38.7-9.3c-1.9,0.9-5.1,0.3-6.5-1.8
			s-1.2-5,0.4-7.1l-4.4-6.3c-4.2,5-4.9,12-1.3,17.2c3.3,4.7,9.2,6.5,14.9,5.1c10.8-4.3,22.9-2.6,29.3,6.7s4.5,22-4.2,29.5L-55.7,593
			z"/>
	</g>
</g>
</svg>
