<?xml version="1.0" encoding="utf-8"?>
<!-- Generator: Adobe Illustrator 25.2.1, SVG Export Plug-In . SVG Version: 6.00 Build 0)  -->
<svg version="1.1" id="Layer_1" xmlns="http://www.w3.org/2000/svg" xmlns:xlink="http://www.w3.org/1999/xlink" x="0px" y="0px"
	 viewBox="0 0 26.1 26.1" style="enable-background:new 0 0 26.1 26.1;" xml:space="preserve">
<style type="text/css">
	.st0{fill:#38A3A5;}
	.st1{fill:#202D87;}
</style>
<g id="_x31_.0-Product-_x2013_-Overview-_x28_Parent-page_x29_-_4_" transform="translate(-150.000000, -1930.000000)">
	<g id="_x30_3-Page-Content-_x2F_-Feature-Tab_4_" transform="translate(0.000000, 1592.000000)">
		<g id="_x30_1-Component-_x2F_-Icon-_x2F_-Cog-_x2F_-Box_4_" transform="translate(150.000000, 338.000000)">
			<path id="Rectangle_4_" class="st0" d="M20.6,0H5.5C2.5,0,0,2.5,0,5.5v15.1c0,3,2.5,5.5,5.5,5.5h15.1c3,0,5.5-2.5,5.5-5.5V5.5
				C26.1,2.5,23.6,0,20.6,0z M5.4,1.8h15.2c2,0,3.6,1.6,3.6,3.6v15.2c0,2-1.6,3.6-3.6,3.6H5.4c-2,0-3.6-1.6-3.6-3.6V5.4
				C1.8,3.5,3.5,1.8,5.4,1.8z"/>
			<g id="_x30_1-Component-_x2F_-Icon-_x2F_-Cog_4_" transform="translate(23.500000, 23.066667)">
			</g>
		</g>
	</g>
</g>
<path class="st1" d="M18.8,17.4c-1.9-1.2-1.8-5-1.8-5c0-1.8-1.2-3.3-2.8-3.7V8.2c0-0.6-0.5-1.2-1.2-1.2c-0.6,0-1.2,0.5-1.2,1.2v0.4
	c-1.6,0.5-2.8,2-2.8,3.7c0,1.1-0.2,4.1-1.8,5c-0.2,0.1-0.4,0.4-0.2,0.6c0.1,0.2,0.2,0.4,0.6,0.4h3.4c0.2,0.9,1.1,1.6,2.1,1.6
	s1.9-0.7,2.1-1.6h3.4c0.2,0,0.5-0.1,0.6-0.4C19.1,17.7,19.1,17.5,18.8,17.4z M12.5,17.2H8.9c1.3-1.9,1.3-4.8,1.3-4.9
	c0-1.5,1.3-2.8,2.8-2.8c1.5,0,2.8,1.3,2.8,2.8c0,0.1-0.1,3,1.3,5h-4.6V17.2z"/>
</svg>
