<?xml version="1.0" encoding="utf-8"?>
<!-- Generator: Adobe Illustrator 25.2.1, SVG Export Plug-In . SVG Version: 6.00 Build 0)  -->
<svg version="1.1" id="Layer_1" xmlns="http://www.w3.org/2000/svg" xmlns:xlink="http://www.w3.org/1999/xlink" x="0px" y="0px"
	 viewBox="0 0 26.1 26.1" style="enable-background:new 0 0 26.1 26.1;" xml:space="preserve">
<style type="text/css">
	.st0{fill:#38A3A5;}
	.st1{fill:#202D87;}
</style>
<g id="_x31_.0-Product-_x2013_-Overview-_x28_Parent-page_x29_-_10_" transform="translate(-150.000000, -1930.000000)">
	<g id="_x30_3-Page-Content-_x2F_-Feature-Tab_10_" transform="translate(0.000000, 1592.000000)">
		<g id="_x30_1-Component-_x2F_-Icon-_x2F_-Cog-_x2F_-Box_10_" transform="translate(150.000000, 338.000000)">
			<path id="Rectangle_10_" class="st0" d="M20,0H6.1C2.7,0,0,2.7,0,6.1V20c0,3.3,2.7,6.1,6.1,6.1H20c3.3,0,6.1-2.7,6.1-6.1V6.1
				C26.1,2.7,23.4,0,20,0z M6,1.8h14c2.3,0,4.2,1.9,4.2,4.2v14c0,2.3-1.9,4.2-4.2,4.2H6c-2.3,0-4.2-1.9-4.2-4.2V6
				C1.8,3.7,3.7,1.8,6,1.8z"/>
			<g id="_x30_1-Component-_x2F_-Icon-_x2F_-Cog_10_" transform="translate(23.500000, 23.066667)">
			</g>
		</g>
	</g>
</g>
<g>
	<g>
		<path class="st1" d="M14.4,12.2l0.8-0.8L14,11.3c-0.1,0-0.3-0.1-0.3-0.2L13.2,10l-0.5,1.1c-0.1,0.1-0.2,0.2-0.3,0.2l-1.2,0.2
			l0.8,0.8c0.1,0.1,0.1,0.2,0.1,0.4l-0.2,1.1l1.1-0.5c0.1-0.1,0.3-0.1,0.4,0l1.1,0.5l-0.2-1.1C14.2,12.5,14.3,12.3,14.4,12.2z"/>
	</g>
</g>
<g>
	<g>
		<path class="st1" d="M13.2,6.6c-3,0-5.4,2.4-5.4,5.4s2.4,5.4,5.4,5.4s5.4-2.4,5.4-5.4S16.2,6.6,13.2,6.6z M16.4,11.5l-1.3,1.2
			l0.3,1.7c0.1,0.3-0.3,0.6-0.6,0.4l-1.6-0.8l-1.6,0.8c-0.3,0.2-0.7-0.1-0.6-0.4l0.3-1.7L10,11.5c-0.3-0.2-0.1-0.7,0.2-0.7l1.8-0.3
			l0.8-1.6c0.1-0.3,0.6-0.3,0.7,0l0.8,1.6l1.8,0.3C16.5,10.8,16.7,11.2,16.4,11.5z"/>
	</g>
</g>
<g>
	<g>
		<path class="st1" d="M13.2,18.3c-1.1,0-2.1-0.3-2.9-0.7v2.9c0,0.3,0.4,0.5,0.7,0.3l2.3-1.5l2.3,1.5c0.3,0.2,0.7,0,0.7-0.3v-2.9
			C15.3,18,14.3,18.3,13.2,18.3z"/>
	</g>
</g>
</svg>
