<?xml version="1.0" encoding="utf-8"?>
<!-- Generator: Adobe Illustrator 25.2.1, SVG Export Plug-In . SVG Version: 6.00 Build 0)  -->
<svg version="1.1" id="Layer_1" xmlns="http://www.w3.org/2000/svg" xmlns:xlink="http://www.w3.org/1999/xlink" x="0px" y="0px"
	 viewBox="0 0 26.1 26.1" style="enable-background:new 0 0 26.1 26.1;" xml:space="preserve">
<style type="text/css">
	.st0{fill:#38A3A5;}
	.st1{fill:#202D87;}
</style>
<g id="_x31_.0-Product-_x2013_-Overview-_x28_Parent-page_x29_-_7_" transform="translate(-150.000000, -1930.000000)">
	<g id="_x30_3-Page-Content-_x2F_-Feature-Tab_7_" transform="translate(0.000000, 1592.000000)">
		<g id="_x30_1-Component-_x2F_-Icon-_x2F_-Cog-_x2F_-Box_7_" transform="translate(150.000000, 338.000000)">
			<path id="Rectangle_7_" class="st0" d="M20,0H6.1C2.7,0,0,2.7,0,6.1V20c0,3.3,2.7,6.1,6.1,6.1H20c3.3,0,6.1-2.7,6.1-6.1V6.1
				C26.1,2.7,23.4,0,20,0z M6,1.8h14c2.3,0,4.2,1.9,4.2,4.2v14c0,2.3-1.9,4.2-4.2,4.2H6c-2.3,0-4.2-1.9-4.2-4.2V6
				C1.8,3.7,3.7,1.8,6,1.8z"/>
			<g id="_x30_1-Component-_x2F_-Icon-_x2F_-Cog_7_" transform="translate(23.500000, 23.066667)">
			</g>
		</g>
	</g>
</g>
<path class="st1" d="M15.7,11.8h-2.5c-0.4,0-0.7,0.3-0.7,0.6v0.8c0,0.4,0.3,0.6,0.7,0.6h2.5c0.6,0,1-0.5,1-1v0
	C16.7,12.2,16.2,11.8,15.7,11.8z M9.4,12.8L9.4,12.8c0,0.6,0.5,1,1,1h0.4c0.4,0,0.7-0.3,0.7-0.6v-0.8c0-0.4-0.3-0.6-0.7-0.6h-0.4
	C9.9,11.8,9.4,12.2,9.4,12.8z"/>
<path class="st1" d="M15.7,14.8h-2.5c-0.4,0-0.7,0.3-0.7,0.6v0.8c0,0.4,0.3,0.6,0.7,0.6h2.5c0.6,0,1-0.5,1-1v0
	C16.7,15.3,16.2,14.8,15.7,14.8z M9.4,15.9L9.4,15.9c0,0.6,0.5,1,1,1h0.4c0.4,0,0.7-0.3,0.7-0.6v-0.8c0-0.4-0.3-0.6-0.7-0.6h-0.4
	C9.9,14.8,9.4,15.3,9.4,15.9z"/>
<path class="st1" d="M17.1,7.6H9c-1.2,0-2.2,1-2.2,2.2v6.9C6.8,18,7.8,19,9,19h8.1c1.2,0,2.2-1,2.2-2.2V9.8
	C19.3,8.6,18.3,7.6,17.1,7.6z M17.1,17.9H9c-0.7,0-1.2-0.5-1.2-1.2v-5.9c0-0.4,0.3-0.6,0.7-0.6h9.2c0.4,0,0.7,0.3,0.7,0.6v5.9
	C18.3,17.4,17.8,17.9,17.1,17.9z"/>
</svg>
