<?xml version="1.0" encoding="utf-8"?>
<!-- Generator: Adobe Illustrator 25.1.0, SVG Export Plug-In . SVG Version: 6.00 Build 0)  -->
<svg version="1.1" id="Layer_1" xmlns="http://www.w3.org/2000/svg" xmlns:xlink="http://www.w3.org/1999/xlink" x="0px" y="0px"
	 viewBox="0 0 38 42" style="enable-background:new 0 0 38 42;" xml:space="preserve">
<style type="text/css">
	.st0{fill:#4056F4;}
	.st1{fill:#3AD8B6;}
	.st2{fill:#40B4F4;}
</style>
<g id="_x30_3-Page-Content-_x2F_-Benefit---Icon-_x26_-Paragraph" transform="translate(931.500000, 308.000000)">
	<g id="_x30_1-Component-_x2F_-Icon-_x2F_-Benefits-_x2F_-Customisable" transform="translate(0.014483, 0.000000)">
		<g id="Group-7" transform="translate(0.000000, 9.000000)">
			<path id="Path" class="st0" d="M-919.5-275h-8c-2.4,0-4-1.1-4-2.8v-19.4c0-1.7,1.6-2.8,4-2.8h8V-275z"/>
			<path id="Path_1_" class="st1" d="M-897-277.8c-0.2,1.1-1.2,1.8-2.3,1.8h-24.1v-22.4l8.4-18.6c1.9,0.7,3.3,2.3,3.3,4.4v9.2
				c0,1.4,0.9,2.3,2.3,2.3h13.4c0.2,0,0.2,0,0.5,0c0.7,0,1.2,0.5,1.6,0.9s0.5,1.1,0.5,1.6L-897-277.8z"/>
			<path id="Combined-Shape" class="st2" d="M-919.5-300l0,25h-4v-23.1l0.8-1.9L-919.5-300z"/>
		</g>
	</g>
</g>
</svg>
