<?xml version="1.0" encoding="utf-8"?>
<!-- Generator: Adobe Illustrator 25.2.1, SVG Export Plug-In . SVG Version: 6.00 Build 0)  -->
<svg version="1.1" id="Layer_1" xmlns="http://www.w3.org/2000/svg" xmlns:xlink="http://www.w3.org/1999/xlink" x="0px" y="0px"
	 viewBox="0 0 26.1 26.1" style="enable-background:new 0 0 26.1 26.1;" xml:space="preserve">
<style type="text/css">
	.st0{fill:#38A3A5;}
	.st1{fill:#202D87;}
</style>
<g id="_x31_.0-Product-_x2013_-Overview-_x28_Parent-page_x29_-_11_" transform="translate(-150.000000, -1930.000000)">
	<g id="_x30_3-Page-Content-_x2F_-Feature-Tab_11_" transform="translate(0.000000, 1592.000000)">
		<g id="_x30_1-Component-_x2F_-Icon-_x2F_-Cog-_x2F_-Box_11_" transform="translate(150.000000, 338.000000)">
			<path id="Rectangle_11_" class="st0" d="M20,0H6.1C2.7,0,0,2.7,0,6.1V20c0,3.3,2.7,6.1,6.1,6.1H20c3.3,0,6.1-2.7,6.1-6.1V6.1
				C26.1,2.7,23.4,0,20,0z M6,1.8h14c2.3,0,4.2,1.9,4.2,4.2v14c0,2.3-1.9,4.2-4.2,4.2H6c-2.3,0-4.2-1.9-4.2-4.2V6
				C1.8,3.7,3.7,1.8,6,1.8z"/>
			<g id="_x30_1-Component-_x2F_-Icon-_x2F_-Cog_11_" transform="translate(23.500000, 23.066667)">
			</g>
		</g>
	</g>
</g>
<g>
	<g>
		<path class="st1" d="M19,16.3c0.8-1,0.7-2.5-0.2-3.5c-0.2-0.2-0.5-0.4-0.7-0.5V10l-3.3-3.3H8.1v13h9.9v-2.6
			c0.2-0.1,0.3-0.2,0.5-0.3l2,2.1l0.5-0.5L19,16.3z M15,8l1.7,1.7H15L15,8L15,8z M17.3,18.9H8.9V7.5h5.4v3h3v1.6
			c-0.8-0.1-1.6,0.1-2.3,0.8c-1,1-1,2.7,0,3.8c0.6,0.6,1.5,0.9,2.3,0.8V18.9z M18.3,16.1c-0.7,0.7-1.9,0.7-2.7,0
			c-0.7-0.7-0.7-1.9,0-2.7c0.7-0.7,1.9-0.7,2.7,0C19,14.1,19,15.3,18.3,16.1z"/>
	</g>
</g>
<g>
	<g>
		<rect x="9.6" y="11.3" class="st1" width="5.4" height="0.8"/>
	</g>
</g>
<g>
	<g>
		<rect x="9.6" y="12.8" class="st1" width="3.9" height="0.8"/>
	</g>
</g>
<g>
	<g>
		<rect x="9.6" y="15.9" class="st1" width="3.9" height="0.8"/>
	</g>
</g>
<g>
	<g>
		<rect x="9.6" y="14.3" class="st1" width="3.9" height="0.8"/>
	</g>
</g>
</svg>
