<?xml version="1.0" encoding="utf-8"?>
<!-- Generator: Adobe Illustrator 25.2.1, SVG Export Plug-In . SVG Version: 6.00 Build 0)  -->
<svg version="1.1" id="Layer_1" xmlns="http://www.w3.org/2000/svg" xmlns:xlink="http://www.w3.org/1999/xlink" x="0px" y="0px"
	 viewBox="0 0 26.1 26.1" style="enable-background:new 0 0 26.1 26.1;" xml:space="preserve">
<style type="text/css">
	.st0{fill:#38A3A5;}
	.st1{fill:#202D87;}
</style>
<g id="_x31_.0-Product-_x2013_-Overview-_x28_Parent-page_x29_-_13_" transform="translate(-150.000000, -1930.000000)">
	<g id="_x30_3-Page-Content-_x2F_-Feature-Tab_13_" transform="translate(0.000000, 1592.000000)">
		<g id="_x30_1-Component-_x2F_-Icon-_x2F_-Cog-_x2F_-Box_13_" transform="translate(150.000000, 338.000000)">
			<path id="Rectangle_13_" class="st0" d="M20,0H6.1C2.7,0,0,2.7,0,6.1V20c0,3.3,2.7,6.1,6.1,6.1H20c3.3,0,6.1-2.7,6.1-6.1V6.1
				C26.1,2.7,23.4,0,20,0z M6,1.8h14c2.3,0,4.2,1.9,4.2,4.2v14c0,2.3-1.9,4.2-4.2,4.2H6c-2.3,0-4.2-1.9-4.2-4.2V6
				C1.8,3.7,3.7,1.8,6,1.8z"/>
			<g id="_x30_1-Component-_x2F_-Icon-_x2F_-Cog_13_" transform="translate(23.500000, 23.066667)">
			</g>
		</g>
	</g>
</g>
<path class="st1" d="M18.6,12.7c-0.2,0-0.4-0.2-0.4-0.4c0-1.6-0.6-3.1-1.8-4.3c-0.2-0.2-0.2-0.4,0-0.6c0.2-0.2,0.4-0.2,0.6,0
	c1.3,1.3,2,3,2,4.9C19,12.5,18.8,12.7,18.6,12.7z"/>
<path class="st1" d="M7.1,12.7c-0.2,0-0.4-0.2-0.4-0.4c0-1.8,0.7-3.6,2-4.9c0.2-0.2,0.4-0.2,0.6,0c0.2,0.2,0.2,0.4,0,0.6
	c-1.1,1.1-1.8,2.7-1.8,4.3C7.5,12.5,7.3,12.7,7.1,12.7z"/>
<path class="st1" d="M12.8,20.2c-1.2,0-2.1-0.9-2.1-2.1c0-0.2,0.2-0.4,0.4-0.4c0.2,0,0.4,0.2,0.4,0.4c0,0.7,0.6,1.3,1.3,1.3
	c0.7,0,1.3-0.6,1.3-1.3c0-0.2,0.2-0.4,0.4-0.4c0.2,0,0.4,0.2,0.4,0.4C14.9,19.2,14,20.2,12.8,20.2z"/>
<path class="st1" d="M17.5,18.5H8.2c-0.5,0-1-0.4-1-1c0-0.3,0.1-0.6,0.3-0.7C8.4,16,8.9,15,8.9,13.9v-1.6c0-2.2,1.8-3.9,3.9-3.9
	c2.2,0,3.9,1.8,3.9,3.9v1.6c0,1.1,0.5,2.2,1.3,2.9c0.2,0.2,0.3,0.5,0.3,0.8C18.4,18,18,18.5,17.5,18.5z M12.8,9.2
	c-1.7,0-3.1,1.4-3.1,3.1v1.6c0,1.4-0.6,2.6-1.6,3.5c0,0-0.1,0.1-0.1,0.1c0,0.1,0.1,0.1,0.1,0.1h9.3c0.1,0,0.1-0.1,0.1-0.1
	c0-0.1,0-0.1,0-0.1c-1-0.9-1.6-2.2-1.6-3.5v-1.6C15.9,10.6,14.5,9.2,12.8,9.2z"/>
<path class="st1" d="M12.8,9.2c-0.2,0-0.4-0.2-0.4-0.4V7.1c0-0.2,0.2-0.4,0.4-0.4c0.2,0,0.4,0.2,0.4,0.4v1.7
	C13.3,9,13.1,9.2,12.8,9.2z"/>
</svg>
